<svg width="48" height="48" viewBox="0 0 48 48" fill="none" xmlns="http://www.w3.org/2000/svg">
<path d="M32.7381 32.3685C34.4285 32.1937 35.7109 30.7364 35.6526 28.9878C35.5943 27.2391 34.1371 25.8402 32.3884 25.8402H32.2718C30.4649 25.8985 29.0659 27.414 29.1242 29.2209C29.1825 30.0953 29.5322 30.853 30.0568 31.3776C28.075 35.283 25.044 38.1391 20.4974 40.529C17.4081 42.1611 14.2022 42.744 10.9963 42.336C8.37334 41.9862 6.33322 40.8204 5.05086 38.8969C3.18562 36.0407 3.01075 32.9514 4.58455 29.8621C5.69204 27.6471 7.44071 26.015 8.5482 25.199C8.31505 24.4412 7.96531 23.1589 7.79044 22.2263C-0.661455 28.3466 0.21288 36.6236 2.77759 40.529C4.70113 43.4434 8.60649 45.2504 12.9199 45.2504C14.0857 45.2504 15.2514 45.1338 16.4172 44.8424C23.8782 43.3852 29.5322 38.9552 32.7381 32.3685Z" fill="#764ABC"/>
<path d="M42.997 25.1408C38.567 19.953 32.0387 17.0969 24.5777 17.0969H23.645C23.1204 16.0477 22.013 15.3482 20.7889 15.3482H20.6723C18.8654 15.4065 17.4664 16.922 17.5247 18.729C17.583 20.4776 19.0402 21.8766 20.7889 21.8766H20.9055C22.1878 21.8183 23.2953 21.0022 23.7616 19.8947H24.8108C29.2408 19.8947 33.4376 21.1771 37.2264 23.6835C40.1408 25.6071 42.2392 28.1135 43.405 31.1445C44.3959 33.5926 44.3376 35.9825 43.2884 38.0226C41.6563 41.1119 38.9168 42.8023 35.3028 42.8023C32.9713 42.8023 30.7563 42.1028 29.5905 41.5782C28.9493 42.1611 27.7836 43.0938 26.9675 43.6766C29.4739 44.8424 32.0387 45.4836 34.4868 45.4836C40.0825 45.4836 44.2211 42.3943 45.7949 39.305C47.4852 35.9242 47.3687 30.0953 42.997 25.1408Z" fill="#764ABC"/>
<path d="M13.3864 33.3595C13.4446 35.1081 14.9019 36.5071 16.6505 36.5071H16.7671C18.5741 36.4488 19.973 34.9333 19.9147 33.1263C19.8564 31.3776 18.3992 29.9787 16.6505 29.9787H16.534C16.4174 29.9787 16.2425 29.9787 16.1259 30.037C13.7361 26.0733 12.7452 21.76 13.0949 17.0968C13.3281 13.5995 14.4938 10.5685 16.534 8.06205C18.2243 5.90536 21.4885 4.85616 23.7035 4.79787C29.8821 4.68129 32.5051 12.3754 32.68 15.4648C33.4378 15.6396 34.7201 16.0476 35.5945 16.3391C34.895 6.89627 29.0661 2 23.4704 2C18.2243 2 13.3864 5.78878 11.4628 11.3845C8.78153 18.8455 10.5302 26.0151 13.7944 31.6691C13.5029 32.0771 13.3281 32.7183 13.3864 33.3595Z" fill="#764ABC"/>
</svg>
